HIERARCHY
ROOT Hips
{
	OFFSET 0.000000 0.000000 0.000000
	CHANNELS 6 Xposition Yposition Zposition Xrotation Yrotation Zrotation
	JOINT LeftUpLeg_virtual
	{
		OFFSET 0.000000 0.000000 0.000000
		CHANNELS 3 Xrotation Yrotation Zrotation
		JOINT LeftUpLeg
		{
			OFFSET 13.026900 -6.336304 -1.092800
			CHANNELS 3 Xrotation Yrotation Zrotation
			JOINT LeftLeg
			{
				OFFSET 0.524474 -46.096886 9.782700
				CHANNELS 3 Xrotation Yrotation Zrotation
				JOINT LeftFoot
				{
					OFFSET -0.524474 -53.427422 -12.948200
					CHANNELS 3 Xrotation Yrotation Zrotation
					JOINT LeftToeBase
					{
						OFFSET 0.192200 -14.009700 16.364100
						CHANNELS 3 Xrotation Yrotation Zrotation
						JOINT LeftToe_End
						{
							OFFSET -1.784700 -0.561700 9.474800
							CHANNELS 3 Xrotation Yrotation Zrotation
							End Site
							{
								OFFSET 0 0 0
							}
						}
					}
				}
			}
		}
	}
	JOINT RightUpLeg_virtual
	{
		OFFSET 0.000000 0.000000 0.000000
		CHANNELS 3 Xrotation Yrotation Zrotation
		JOINT RightUpLeg
		{
			OFFSET -12.883000 -6.336304 -1.092800
			CHANNELS 3 Xrotation Yrotation Zrotation
			JOINT RightLeg
			{
				OFFSET -0.524587 -46.096825 9.782800
				CHANNELS 3 Xrotation Yrotation Zrotation
				JOINT RightFoot
				{
					OFFSET 0.524587 -53.427383 -12.948300
					CHANNELS 3 Xrotation Yrotation Zrotation
					JOINT RightToeBase
					{
						OFFSET -0.192200 -14.009700 16.364100
						CHANNELS 3 Xrotation Yrotation Zrotation
						JOINT RightToe_End
						{
							OFFSET 1.784700 -0.561700 9.474800
							CHANNELS 3 Xrotation Yrotation Zrotation
							End Site
							{
								OFFSET 0 0 0
							}
						}
					}
				}
			}
		}
	}
	JOINT Spine_virtual
	{
		OFFSET 0.000000 0.000000 0.000000
		CHANNELS 3 Xrotation Yrotation Zrotation
		JOINT Spine
		{
			OFFSET 0.072000 7.257294 -0.789700
			CHANNELS 3 Xrotation Yrotation Zrotation
			JOINT Spine1
			{
				OFFSET 0.000000 12.508769 -0.658067
				CHANNELS 3 Xrotation Yrotation Zrotation
				JOINT Spine1_split
				{
					OFFSET 0.000000 12.508769 -0.658067
					CHANNELS 3 Xrotation Yrotation Zrotation
					JOINT Spine2
					{
						OFFSET 0.000000 12.508769 -0.658067
						CHANNELS 3 Xrotation Yrotation Zrotation
						JOINT Neck_virtual
						{
							OFFSET 0.000000 0.000000 0.000000
							CHANNELS 3 Xrotation Yrotation Zrotation
							JOINT Neck
							{
								OFFSET 0.000000 14.033295 7.520400
								CHANNELS 3 Xrotation Yrotation Zrotation
								JOINT Head
								{
									OFFSET 0.000000 8.198502 5.703100
									CHANNELS 3 Xrotation Yrotation Zrotation
									JOINT HeadTop_End
									{
										OFFSET 0.000000 17.760803 13.332701
										CHANNELS 3 Xrotation Yrotation Zrotation
										End Site
										{
											OFFSET 0 0 0
										}
									}
								}
							}
						}
						JOINT LeftShoulder_virtual
						{
							OFFSET 0.000000 0.000000 0.000000
							CHANNELS 3 Xrotation Yrotation Zrotation
							JOINT LeftShoulder
							{
								OFFSET 6.292450 5.785301 -0.669000
								CHANNELS 3 Xrotation Yrotation Zrotation
								JOINT LeftShoulder_split
								{
									OFFSET 6.292450 5.785301 -0.669000
									CHANNELS 3 Xrotation Yrotation Zrotation
									JOINT LeftArm
									{
										OFFSET 13.907140 -6.093903 1.965100
										CHANNELS 3 Xrotation Yrotation Zrotation
										JOINT LeftForeArm
										{
											OFFSET 34.140198 0.000000 0.000000
											CHANNELS 3 Xrotation Yrotation Zrotation
											JOINT LeftHand
											{
												OFFSET 40.960209 0.000000 0.000000
												CHANNELS 3 Xrotation Yrotation Zrotation
												End Site
												{
													OFFSET 0 0 0
												}
											}
										}
									}
								}
							}
						}
						JOINT RightShoulder_virtual
						{
							OFFSET 0.000000 0.000000 0.000000
							CHANNELS 3 Xrotation Yrotation Zrotation
							JOINT RightShoulder
							{
								OFFSET -6.292450 5.785301 -0.669000
								CHANNELS 3 Xrotation Yrotation Zrotation
								JOINT RightShoulder_split
								{
									OFFSET -6.292450 5.785301 -0.669000
									CHANNELS 3 Xrotation Yrotation Zrotation
									JOINT RightArm
									{
										OFFSET -13.907140 -6.093903 1.965100
										CHANNELS 3 Xrotation Yrotation Zrotation
										JOINT RightForeArm
										{
											OFFSET -34.140198 0.000000 0.000000
											CHANNELS 3 Xrotation Yrotation Zrotation
											JOINT RightHand
											{
												OFFSET -40.960209 0.000000 0.000000
												CHANNELS 3 Xrotation Yrotation Zrotation
												End Site
												{
													OFFSET 0 0 0
												}
											}
										}
									}
								}
							}
						}
					}
				}
			}
		}
	}
}
MOTION
Frames: 9
Frame Time: 0.03333333
-0.265410 98.358559 1.093727 0.000000 0.000000 0.000000 0.778025 -60.966747 4.035009 -36.078142 10.546586 23.833827 40.055241 -6.040348 -5.672379 -3.741434 -3.433258 -9.315228 -0.196284 0.429896 0.308237 0.000000 0.000000 0.000000 -2.187259 -60.830416 2.669995 -33.977657 -11.623741 -23.995486 43.711346 2.996135 -5.530068 -12.612562 3.114206 23.444718 -0.949917 -0.437871 -0.651047 0.000000 0.000000 0.000000 -1.461798 -60.706421 1.457332 12.272798 2.374531 -2.144535 8.241122 0.708900 -5.623436 0.276290 -0.258836 1.221859 0.000000 0.000000 0.000000 7.965595 0.307656 -4.349073 -21.031105 21.170999 9.530663 3.417159 27.777213 -2.518222 0.000000 0.000000 0.000000 9.863976 0.263644 -4.961116 -5.200276 -16.339433 -1.571212 -2.033686 -3.968179 1.270171 -23.910132 9.606624 -32.498050 4.262104 -42.330306 0.393780 0.000000 0.000000 0.000000 9.307976 0.560288 -5.405531 -5.368530 14.128158 1.726416 3.325846 -2.821815 3.549105 -32.460303 -22.107613 35.001004 165.216798 69.652780 -162.334855 0.000000 0.000000 0.000000 
-0.693222 97.987015 1.515072 0.000000 0.000000 0.000000 0.381436 -60.684783 3.647847 -35.793511 11.027709 23.960145 40.358386 -6.488394 -5.596355 -4.630090 -3.495855 -9.490859 -0.518257 0.373151 0.463380 0.000000 0.000000 0.000000 -2.612240 -60.686142 2.156146 -33.483377 -11.309301 -23.977330 44.511547 2.991639 -5.558081 -13.236845 2.796945 22.941439 -0.237074 -0.442305 -0.578100 0.000000 0.000000 0.000000 -1.839668 -60.729275 1.239112 12.308215 2.177133 -2.108360 7.995452 0.694135 -5.641154 -0.545580 -0.904584 1.738374 0.000000 0.000000 0.000000 7.702853 0.293992 -4.359014 -21.019390 20.597643 9.861902 3.674347 26.765087 -2.374137 0.000000 0.000000 0.000000 9.590923 0.279430 -4.954877 -5.200900 -16.060886 -1.561310 -0.517557 -5.266144 1.008512 -25.262182 9.538416 -33.589340 5.527375 -41.963023 1.505447 0.000000 0.000000 0.000000 8.902139 0.549770 -5.360551 -5.463346 14.083024 1.622369 4.550649 -2.427092 1.822856 -30.902450 -21.335701 34.968735 167.317341 66.463594 -164.435288 0.000000 0.000000 0.000000 
-1.409257 97.573883 2.023598 0.000000 0.000000 0.000000 -0.790862 -60.503790 2.429003 -35.196429 11.322932 24.091377 41.214799 -7.061749 -5.442392 -6.214393 -3.193187 -9.400657 -0.883988 0.373735 0.602422 0.000000 0.000000 0.000000 -3.421201 -60.352767 1.032442 -31.842731 -11.010793 -23.906943 45.387867 3.122501 -5.672351 -14.180945 2.343002 22.902886 -0.155610 -0.539311 -0.527216 0.000000 0.000000 0.000000 -2.914826 -60.448540 0.202204 12.156107 2.044348 -1.873743 7.624588 0.737387 -5.423459 -0.683258 -0.904788 2.048054 0.000000 0.000000 0.000000 7.248140 0.314605 -4.225985 -20.115713 19.558800 10.132332 3.607626 25.222343 -1.740440 0.000000 0.000000 0.000000 9.091695 0.339761 -4.711391 -5.147780 -14.898183 -1.059942 0.409391 -5.783890 0.438941 -25.217525 9.830636 -32.905334 6.717483 -44.525860 3.105607 0.000000 0.000000 0.000000 8.297589 0.524358 -5.111045 -5.507588 12.842273 0.728870 6.182986 -2.188546 0.710765 -25.442350 -19.785586 35.328641 163.257941 62.803439 -160.780795 0.000000 0.000000 0.000000 
-2.325566 97.434135 2.524868 0.000000 0.000000 0.000000 -2.507099 -60.369583 0.621696 -34.063639 11.351743 23.957179 41.981491 -7.716885 -5.177948 -7.908267 -2.648842 -9.075118 -1.400532 0.427633 0.721778 0.000000 0.000000 0.000000 -4.444365 -59.764927 -0.427532 -29.091101 -10.920924 -23.805593 45.637849 3.273042 -5.788644 -15.193141 1.737661 23.172805 -0.488258 -0.693036 -0.487679 0.000000 0.000000 0.000000 -4.283566 -59.771259 -1.333757 11.867295 1.972800 -1.539470 7.181362 0.811927 -4.999533 -0.044776 -0.364357 2.139367 0.000000 0.000000 0.000000 6.668178 0.381408 -3.941050 -18.398750 18.192651 10.331161 3.353336 23.506912 -0.872953 0.000000 0.000000 0.000000 8.387179 0.454584 -4.222049 -5.115810 -12.768257 -0.108737 0.769838 -5.640927 0.108999 -23.458737 11.081332 -30.356643 7.676082 -50.178272 4.941991 0.000000 0.000000 0.000000 7.549013 0.488697 -4.673249 -5.602034 10.402895 -0.802681 7.496155 -2.076850 -0.037012 -17.623917 -17.969733 36.169267 155.502548 59.852217 -153.888328 0.000000 0.000000 0.000000 
-3.324202 97.916809 3.174347 0.000000 0.000000 0.000000 -4.417788 -60.252623 -1.434802 -32.188151 11.141090 23.413182 41.924613 -8.395313 -4.775295 -9.196538 -1.978849 -8.521650 -1.982639 0.506059 0.776002 0.000000 0.000000 0.000000 -5.534591 -59.002562 -1.924758 -25.243718 -11.168159 -23.550832 44.408691 3.251610 -5.772678 -15.908130 1.036574 23.422568 -0.715318 -0.863798 -0.474042 0.000000 0.000000 0.000000 -5.671875 -58.837251 -3.025936 11.440789 1.901933 -1.203639 6.642937 0.882496 -4.414582 1.087520 0.368062 1.944170 0.000000 0.000000 0.000000 6.023012 0.464102 -3.511780 -15.833314 16.797699 10.356780 3.083888 21.832751 -0.018840 0.000000 0.000000 0.000000 7.550610 0.568588 -3.519359 -5.227691 -9.739751 1.094713 0.443305 -4.789581 -0.333471 -20.498832 13.586559 -26.053362 7.690727 -58.477812 6.247609 0.000000 0.000000 0.000000 6.636444 0.449552 -4.054632 -5.850662 6.918984 -2.779223 7.723416 -2.524929 -0.004131 -9.339541 -16.094523 37.204416 145.294653 57.902601 -145.010148 0.000000 0.000000 0.000000 
-4.376421 99.317703 3.942665 0.000000 0.000000 0.000000 -6.164998 -59.922916 -3.332099 -29.635549 10.805228 22.490835 40.630275 -9.000936 -4.214177 -9.699443 -1.305483 -7.806414 -2.291615 0.599559 0.693382 0.000000 0.000000 0.000000 -6.557680 -58.091387 -3.292059 -20.547185 -11.824666 -22.940691 41.151955 2.941769 -5.525522 -15.961046 0.347210 23.425317 -0.622728 -1.002834 -0.507028 0.000000 0.000000 0.000000 -6.810794 -57.671754 -4.525674 10.822366 1.754142 -0.934427 5.959787 0.893320 -3.745656 1.362465 0.990435 1.544034 0.000000 0.000000 0.000000 5.426210 0.531970 -2.986883 -12.459777 15.593030 10.100896 2.861185 20.330178 0.625841 0.000000 0.000000 0.000000 6.673756 0.654002 -2.695376 -5.556114 -6.024287 2.479997 -0.025574 -3.443260 -0.729021 -17.417344 17.579247 -20.314200 5.228993 -67.899990 5.287364 0.000000 0.000000 0.000000 5.633429 0.368173 -3.304239 -6.344714 2.524070 -5.025535 7.016950 -3.209721 0.304068 -2.278140 -14.475128 38.188120 134.337472 56.283583 -135.601344 0.000000 0.000000 0.000000 
-5.552538 101.590141 4.851665 0.000000 0.000000 0.000000 -7.514919 -59.257055 -4.888336 -26.639860 10.445873 21.411895 38.011485 -9.643704 -3.547751 -9.116715 -0.794389 -7.143674 -2.315060 0.698478 0.455178 0.000000 0.000000 0.000000 -7.287364 -56.982564 -4.399209 -15.297611 -12.819323 -21.743258 35.980555 2.284379 -5.093969 -15.080667 -0.187027 23.059989 -0.654224 -1.061652 -0.631568 0.000000 0.000000 0.000000 -7.524890 -56.267515 -5.620009 10.047198 1.497806 -0.706235 5.158529 0.838700 -3.053789 1.174991 0.757378 1.279563 0.000000 0.000000 0.000000 4.934623 0.550386 -2.410908 -8.489377 14.707752 9.518255 2.592414 19.022350 0.980575 0.000000 0.000000 0.000000 5.816236 0.674792 -1.840670 -6.049269 -1.985734 4.173131 -0.282018 -2.594206 -0.575773 -15.297233 23.182839 -13.528506 -3.468695 -76.389368 -1.983224 0.000000 0.000000 0.000000 4.644398 0.217808 -2.525734 -7.114736 -2.498557 -7.360366 5.977703 -3.679532 0.476536 3.178773 -13.343664 38.919459 124.832936 54.489839 -127.328892 0.000000 0.000000 0.000000 
-6.798136 104.475639 5.860809 0.000000 0.000000 0.000000 -8.291570 -58.243789 -6.007435 -23.687656 10.064416 20.425307 34.392024 -10.365617 -2.888209 -7.572834 -0.522995 -6.642762 -2.307947 0.792892 0.117465 0.000000 0.000000 0.000000 -7.643325 -55.748120 -5.235847 -9.876956 -13.778767 -19.866413 29.673613 1.468707 -4.630003 -13.339011 -0.365200 22.424107 -1.236435 -1.027970 -0.875426 0.000000 0.000000 0.000000 -7.872155 -54.783708 -6.336514 9.221155 1.169933 -0.455922 4.302508 0.745415 -2.389335 0.902520 -0.126435 0.862962 0.000000 0.000000 0.000000 4.542358 0.519527 -1.855886 -4.260651 14.139714 8.521379 2.003916 17.867515 1.085812 0.000000 0.000000 0.000000 5.044406 0.582477 -1.069866 -6.664042 1.985016 6.223101 -0.266168 -1.912050 0.110342 -14.950663 29.539895 -6.307433 -24.922081 -81.289790 -22.300815 0.000000 0.000000 0.000000 3.767335 -0.002161 -1.827315 -8.095872 -7.720141 -9.588013 5.236312 -3.844143 0.523756 7.400370 -12.778243 38.937252 117.968855 52.854111 -120.859528 0.000000 0.000000 0.000000 
-8.121552 107.486717 6.756893 0.000000 0.000000 0.000000 -8.553697 -57.014980 -6.688826 -21.327170 9.652245 19.722100 30.559571 -11.050017 -2.374380 -5.363462 -0.464781 -6.180654 -2.454168 0.884959 -0.246975 0.000000 0.000000 0.000000 -7.575652 -54.234646 -5.771154 -4.750231 -14.339769 -17.537515 23.443248 0.845553 -4.282375 -11.145071 -0.026567 21.612703 -2.479462 -0.878375 -1.210284 0.000000 0.000000 0.000000 -7.909203 -53.215274 -6.732117 8.460352 0.883923 -0.119136 3.516706 0.673210 -1.790863 0.586458 -0.663783 0.513057 0.000000 0.000000 0.000000 4.283837 0.460070 -1.372901 -0.271277 13.683227 7.153027 0.745897 16.871590 1.102609 0.000000 0.000000 0.000000 4.417665 0.455438 -0.453548 -7.370776 5.764599 8.592223 -0.185634 -1.352947 1.004750 -16.635085 35.443190 0.817806 -45.849783 -81.842066 -42.430805 0.000000 0.000000 0.000000 3.154925 -0.235282 -1.251484 -9.122513 -12.627316 -11.357251 5.080030 -3.812040 0.001491 10.687323 -13.337944 38.203792 113.334456 52.063677 -115.499578 0.000000 0.000000 0.000000 
